<svg width="25" height="24" viewBox="0 0 25 24" fill="none" xmlns="http://www.w3.org/2000/svg">
<path fill-rule="evenodd" clip-rule="evenodd" d="M7.08862 6C7.08862 5.44772 7.53634 5 8.08862 5H21.0886C21.6409 5 22.0886 5.44772 22.0886 6C22.0886 6.55228 21.6409 7 21.0886 7H8.08862C7.53634 7 7.08862 6.55228 7.08862 6Z" fill="white"/>
<path fill-rule="evenodd" clip-rule="evenodd" d="M7.08862 12C7.08862 11.4477 7.53634 11 8.08862 11H21.0886C21.6409 11 22.0886 11.4477 22.0886 12C22.0886 12.5523 21.6409 13 21.0886 13H8.08862C7.53634 13 7.08862 12.5523 7.08862 12Z" fill="white"/>
<path fill-rule="evenodd" clip-rule="evenodd" d="M7.08862 18C7.08862 17.4477 7.53634 17 8.08862 17H21.0886C21.6409 17 22.0886 17.4477 22.0886 18C22.0886 18.5523 21.6409 19 21.0886 19H8.08862C7.53634 19 7.08862 18.5523 7.08862 18Z" fill="white"/>
<path fill-rule="evenodd" clip-rule="evenodd" d="M5.08862 6C5.08862 5.44772 4.64091 5 4.08862 5H3.08862C2.53634 5 2.08862 5.44772 2.08862 6C2.08862 6.55228 2.53634 7 3.08862 7H4.08862C4.64091 7 5.08862 6.55228 5.08862 6Z" fill="white"/>
<path fill-rule="evenodd" clip-rule="evenodd" d="M5.08862 12C5.08862 11.4477 4.64091 11 4.08862 11H3.08862C2.53634 11 2.08862 11.4477 2.08862 12C2.08862 12.5523 2.53634 13 3.08862 13H4.08862C4.64091 13 5.08862 12.5523 5.08862 12Z" fill="white"/>
<path fill-rule="evenodd" clip-rule="evenodd" d="M5.08862 18C5.08862 17.4477 4.64091 17 4.08862 17H3.08862C2.53634 17 2.08862 17.4477 2.08862 18C2.08862 18.5523 2.53634 19 3.08862 19H4.08862C4.64091 19 5.08862 18.5523 5.08862 18Z" fill="white"/>
</svg>
