<svg width="25" height="24" viewBox="0 0 25 24" fill="none" xmlns="http://www.w3.org/2000/svg">
<path fill-rule="evenodd" clip-rule="evenodd" d="M2.08862 10.5C2.08862 5.80558 5.8942 2 10.5886 2C15.283 2 19.0886 5.80558 19.0886 10.5C19.0886 15.1944 15.283 19 10.5886 19C5.8942 19 2.08862 15.1944 2.08862 10.5ZM10.5886 4C6.99877 4 4.08862 6.91015 4.08862 10.5C4.08862 14.0899 6.99877 17 10.5886 17C14.1785 17 17.0886 14.0899 17.0886 10.5C17.0886 6.91015 14.1785 4 10.5886 4Z" fill="white"/>
<path fill-rule="evenodd" clip-rule="evenodd" d="M15.1816 15.0927C15.5721 14.7022 16.2053 14.7022 16.5958 15.0927L21.7958 20.2927C22.1863 20.6832 22.1863 21.3164 21.7958 21.7069C21.4053 22.0974 20.7721 22.0974 20.3816 21.7069L15.1816 16.5069C14.791 16.1164 14.791 15.4832 15.1816 15.0927Z" fill="white"/>
</svg>

