 <svg width="24" height="25" viewBox="0 0 24 25" fill="currentColor" xmlns="http://www.w3.org/2000/svg">
      <path fill-rule="evenodd" clip-rule="evenodd" d="M2 11.3598C2 6.66538 5.80558 2.8598 10.5 2.8598C15.1944 2.8598 19 6.66538 19 11.3598C19 16.0542 15.1944 19.8598 10.5 19.8598C5.80558 19.8598 2 16.0542 2 11.3598ZM10.5 4.8598C6.91015 4.8598 4 7.76995 4 11.3598C4 14.9497 6.91015 17.8598 10.5 17.8598C14.0899 17.8598 17 14.9497 17 11.3598C17 7.76995 14.0899 4.8598 10.5 4.8598Z" />
      <path fill-rule="evenodd" clip-rule="evenodd" d="M15.0929 15.9527C15.4834 15.5622 16.1166 15.5622 16.5071 15.9527L21.7071 21.1527C22.0976 21.5432 22.0976 22.1764 21.7071 22.5669C21.3166 22.9574 20.6834 22.9574 20.2929 22.5669L15.0929 17.3669C14.7024 16.9764 14.7024 16.3432 15.0929 15.9527Z" />
    </svg>
