<svg width="21" height="20" viewBox="0 0 21 20" fill="none" xmlns="http://www.w3.org/2000/svg">
<path fill-rule="evenodd" clip-rule="evenodd" d="M0.088623 15.8332C0.088623 13.532 1.9541 11.6665 4.25529 11.6665H10.922C13.2231 11.6665 15.0886 13.532 15.0886 15.8332V17.4998C15.0886 17.9601 14.7155 18.3332 14.2553 18.3332C13.7951 18.3332 13.422 17.9601 13.422 17.4998V15.8332C13.422 14.4525 12.3027 13.3332 10.922 13.3332H4.25529C2.87458 13.3332 1.75529 14.4525 1.75529 15.8332V17.4998C1.75529 17.9601 1.38219 18.3332 0.921956 18.3332C0.461719 18.3332 0.088623 17.9601 0.088623 17.4998V15.8332Z" fill="white"/>
<path fill-rule="evenodd" clip-rule="evenodd" d="M3.42188 5.83317C3.42188 3.53198 5.28735 1.6665 7.58854 1.6665C9.88973 1.6665 11.7552 3.53198 11.7552 5.83317C11.7552 8.13436 9.88973 9.99984 7.58854 9.99984C5.28735 9.99984 3.42188 8.13436 3.42188 5.83317ZM7.58854 3.33317C6.20783 3.33317 5.08854 4.45246 5.08854 5.83317C5.08854 7.21388 6.20783 8.33317 7.58854 8.33317C8.96925 8.33317 10.0885 7.21388 10.0885 5.83317C10.0885 4.45246 8.96925 3.33317 7.58854 3.33317Z" fill="white"/>
<path fill-rule="evenodd" clip-rule="evenodd" d="M15.9485 12.4001C16.0636 11.9545 16.5181 11.6865 16.9637 11.8016C18.8023 12.2763 20.0873 13.934 20.0887 15.8328L20.0887 17.5001C20.0887 17.9603 19.7156 18.3334 19.2554 18.3334C18.7952 18.3334 18.4221 17.9603 18.4221 17.5001L18.4221 15.8341C18.4221 15.834 18.4221 15.8341 18.4221 15.8341C18.4211 14.6949 17.6501 13.7001 16.5471 13.4153C16.1015 13.3003 15.8335 12.8457 15.9485 12.4001Z" fill="white"/>
<path fill-rule="evenodd" clip-rule="evenodd" d="M12.6146 2.40174C12.7288 1.95588 13.1828 1.68699 13.6286 1.80114C15.4723 2.2732 16.7618 3.93447 16.7618 5.8376C16.7618 7.74074 15.4723 9.40201 13.6286 9.87406C13.1828 9.98822 12.7288 9.71932 12.6146 9.27347C12.5005 8.82761 12.7694 8.37363 13.2152 8.25948C14.3214 7.97625 15.0951 6.97948 15.0951 5.8376C15.0951 4.69572 14.3214 3.69896 13.2152 3.41573C12.7694 3.30157 12.5005 2.84759 12.6146 2.40174Z" fill="white"/>
</svg>
