<svg width="21" height="20" viewBox="0 0 21 20" fill="none" xmlns="http://www.w3.org/2000/svg">
<path fill-rule="evenodd" clip-rule="evenodd" d="M0.600098 15.8333C0.600098 13.5322 2.46558 11.6667 4.76676 11.6667H11.4334C13.7346 11.6667 15.6001 13.5322 15.6001 15.8333V17.5C15.6001 17.9602 15.227 18.3333 14.7668 18.3333C14.3065 18.3333 13.9334 17.9602 13.9334 17.5V15.8333C13.9334 14.4526 12.8141 13.3333 11.4334 13.3333H4.76676C3.38605 13.3333 2.26676 14.4526 2.26676 15.8333V17.5C2.26676 17.9602 1.89367 18.3333 1.43343 18.3333C0.973194 18.3333 0.600098 17.9602 0.600098 17.5V15.8333Z" fill="#6347F5"/>
<path fill-rule="evenodd" clip-rule="evenodd" d="M3.93347 5.83334C3.93347 3.53215 5.79895 1.66667 8.10014 1.66667C10.4013 1.66667 12.2668 3.53215 12.2668 5.83334C12.2668 8.13452 10.4013 10 8.10014 10C5.79895 10 3.93347 8.13452 3.93347 5.83334ZM8.10014 3.33334C6.71943 3.33334 5.60014 4.45263 5.60014 5.83334C5.60014 7.21405 6.71943 8.33334 8.10014 8.33334C9.48085 8.33334 10.6001 7.21405 10.6001 5.83334C10.6001 4.45263 9.48085 3.33334 8.10014 3.33334Z" fill="#6347F5"/>
<path fill-rule="evenodd" clip-rule="evenodd" d="M16.4599 12.4C16.575 11.9544 17.0295 11.6864 17.4751 11.8015C19.3136 12.2762 20.5987 13.9339 20.6001 15.8327L20.6001 17.5C20.6001 17.9602 20.227 18.3333 19.7668 18.3333C19.3065 18.3333 18.9334 17.9602 18.9334 17.5L18.9334 15.834C18.9334 15.8339 18.9334 15.834 18.9334 15.834C18.9325 14.6948 18.1615 13.7 17.0584 13.4152C16.6128 13.3001 16.3448 12.8456 16.4599 12.4Z" fill="#6347F5"/>
<path fill-rule="evenodd" clip-rule="evenodd" d="M13.1261 2.40163C13.2403 1.95578 13.6942 1.68688 14.1401 1.80104C15.9837 2.27309 17.2733 3.93436 17.2733 5.8375C17.2733 7.74063 15.9837 9.4019 14.1401 9.87395C13.6942 9.98811 13.2403 9.71922 13.1261 9.27336C13.0119 8.82751 13.2808 8.37353 13.7267 8.25937C14.8329 7.97614 15.6066 6.97938 15.6066 5.8375C15.6066 4.69562 14.8329 3.69885 13.7267 3.41562C13.2808 3.30146 13.0119 2.84748 13.1261 2.40163Z" fill="#6347F5"/>
</svg>
